# xmcd
#
# Track frame offsets: 
#        150
#        22322
#        44145
#        65132
#        84060
#        101875
#        122730
#        147720
#        163080
#        189090
#        214255
#        232020
#        252090
#        269742
#        290662
#        310852
#
# Disc length: 4412 seconds
#
# Revision: 12
# Processed by: cddbd v1.5.2PL0 Copyright (c) Steve Scherf et al.
# Submitted via: ExactAudioCopyFreeDBPlugin 1.0
#
DISCID=02113a10
DTITLE=Whitney Houston - Love, Whitney
DYEAR=2001
DGENRE=SMB
TTITLE0=Until You Come Back
TTITLE1=I Have Nothing
TTITLE2=Why Does it Hurt So Bad
TTITLE3=You Give Good Love
TTITLE4=All the Man That I Need
TTITLE5=Where Do Broken Hearts Go
TTITLE6=Just the Lonely Talking Again
TTITLE7=Exhale (Shoop Shoop)
TTITLE8=Miracle
TTITLE9=For the Love of You
TTITLE10=Saving All My Love for You
TTITLE11=Run to You
TTITLE12=I Believe in You and Me
TTITLE13=Didn't We Almost Have it All
TTITLE14=All at Once
TTITLE15=I Will Always Love You
EXTD=
EXTT0=
EXTT1=
EXTT2=
EXTT3=
EXTT4=
EXTT5=
EXTT6=
EXTT7=
EXTT8=
EXTT9=
EXTT10=
EXTT11=
EXTT12=
EXTT13=
EXTT14=
EXTT15=
PLAYORDER=
